<svg xmlns="http://www.w3.org/2000/svg" fill="currentColor" viewBox="0 0 24 24" class="h-7 w-7">
  <path d="M12 0.297C5.37 0.297 0 5.667 0 12.297c0 5.292 3.438 9.79 8.205 11.387.6.113.82-.258.82-.577 0-.285-.01-1.04-.015-2.04-3.338.726-4.042-1.61-4.042-1.61-.546-1.386-1.333-1.756-1.333-1.756-1.09-.745.083-.73.083-.73 1.205.085 1.84 1.238 1.84 1.238 1.07 1.834 2.807 1.304 3.492.997.108-.776.418-1.305.76-1.605-2.665-.3-5.466-1.333-5.466-5.93 0-1.31.47-2.38 1.236-3.22-.124-.303-.536-1.523.117-3.176 0 0 1.008-.322 3.3 1.23.957-.266 1.983-.4 3.003-.404 1.02.004 2.047.138 3.006.404 2.29-1.552 3.296-1.23 3.296-1.23.655 1.653.243 2.873.12 3.176.77.84 1.235 1.91 1.235 3.22 0 4.61-2.804 5.625-5.476 5.92.43.372.814 1.103.814 2.222 0 1.606-.014 2.896-.014 3.286 0 .32.216.694.825.576C20.565 22.084 24 17.584 24 12.297c0-6.63-5.373-12-12-12"/>
</svg>
